<?xml version="1.0" encoding="UTF-8"?>
<svg width="14px" height="14px" viewBox="0 0 14 14" version="1.1" xmlns="http://www.w3.org/2000/svg" xmlns:xlink="http://www.w3.org/1999/xlink">
    <!-- Generator: Sketch 53 (72520) - https://sketchapp.com -->
    <title>Shape</title>
    <desc>Created with Sketch.</desc>
    <g id="P-1-登录页" stroke="none" stroke-width="1" fill="none" fill-rule="evenodd">
        <g id="P3-03-卖家管理" transform="translate(-1295.000000, -147.000000)" fill="#999999" fill-rule="nonzero">
            <g id="分组" transform="translate(220.000000, 122.000000)">
                <g id="Bitmap">
                    <g id="搜索栏" transform="translate(696.000000, 15.000000)">
                        <g id="Group-6-Copy-4">
                            <g id="前后元素">
                                <g id="Group-34" transform="translate(15.000000, 5.000000)">
                                    <g id="默认图标" transform="translate(363.000000, 4.000000)">
                                        <g id="搜索-(1)-(1)" transform="translate(1.000000, 1.000000)">
                                            <path d="M13.7834686,12.3513398 L11.158212,9.72608318 C11.8785568,8.71960141 12.3067618,7.49101335 12.3067618,6.16037644 C12.3067618,2.77075397 9.54944198,0.0134341598 6.15981953,0.0134341598 C2.77019708,0.0134341598 0.0148782162,2.77075397 0.0148782162,6.16037644 C0.0148782162,9.54999891 2.77219802,12.3073187 6.16182048,12.3073187 C7.4824526,12.3073187 8.70503781,11.8851166 9.70951861,11.1727756 L12.3367762,13.8000332 C12.534871,13.998128 12.9550721,14.0401481 13.1551679,13.8420533 L13.8795146,13.1177066 C14.0776094,12.9176108 13.9835644,12.5514355 13.7834686,12.3513398 Z M1.03736764,6.16037644 C1.03736764,3.33502407 3.33446716,1.03792455 6.15981953,1.03792455 C8.9851719,1.03792455 11.2822714,3.33502407 11.2822714,6.16037644 C11.2822714,8.98572881 8.98517188,11.2828283 6.15981953,11.2828283 C3.33646812,11.2828283 1.03736764,8.98572879 1.03736764,6.16037644 Z" id="Shape"></path>
                                        </g>
                                    </g>
                                </g>
                            </g>
                        </g>
                    </g>
                </g>
            </g>
        </g>
    </g>
</svg>