<?xml version="1.0" encoding="UTF-8"?>
<svg width="16px" height="14px" viewBox="0 0 16 14" version="1.1" xmlns="http://www.w3.org/2000/svg" xmlns:xlink="http://www.w3.org/1999/xlink">
    <!-- Generator: Sketch 53 (72520) - https://sketchapp.com -->
    <title>客户管理</title>
    <desc>Created with Sketch.</desc>
    <g id="客户管理" stroke="none" stroke-width="1" fill="none" fill-rule="evenodd">
        <g>
            <rect id="矩形" fill="#D8D8D8" opacity="0.0140438988" x="0" y="0" width="16" height="14"></rect>
            <path d="M9.26253533,9.12253099 C9.26253533,9.12253099 8.72815829,8.98003045 8.58565774,8.90878018 C8.30065666,8.7306545 8.06095829,8.41002827 8.06095829,8.05377691 C8.06095829,7.66190041 8.70967497,6.92185874 8.9234258,6.67248278 C9.45780283,6.03123034 9.64233241,5.30671285 9.64233239,4.34483417 C9.64233239,2.34982656 8.91169047,0.332056209 6.32346162,0.332056209 C3.73523277,0.332056209 2.71503617,2.18706711 2.71503617,4.18207472 C2.71503617,5.14395339 3.09404017,5.93829476 3.59279207,6.57954721 C3.83057708,6.79393846 4.57727566,7.66190041 4.57727568,8.05377691 C4.57727568,8.41002827 4.32389575,8.73447612 4.03889465,8.94822693 C3.98255827,8.99317937 3.95439007,9.01565559 3.95439007,9.01565558 C3.77626439,9.12253099 3.58870929,9.14999801 3.3843879,9.19378126 C2.03063274,9.65690802 0.42750162,10.9428026 0.21375081,11.2600391 C8.52651283e-14,11.5772757 -1.5655492e-08,11.7944162 8.52651283e-14,12.0794173 C8.52651283e-14,12.9344205 0.712502716,13.6469232 1.60313112,13.6469232 L11.008167,13.6469232 C11.9344205,13.6469232 12.6469232,12.9700457 12.6469232,12.0794173 C12.6469232,11.7231659 12.5044227,11.4025397 12.326297,11.1175386 C11.6494194,10.2269102 10.5806654,9.55003263 9.26253533,9.12253099 Z M15.6394346,10.690037 C15.0338073,9.9419091 14.1075538,9.30065666 12.9319243,8.94440531 C12.9319243,8.94440531 12.4687976,8.83752989 12.326297,8.76627962 C12.0769211,8.58815394 11.9344205,8.30315286 11.9344205,7.98252664 C11.9344205,7.62627527 12.2194216,7.34127419 12.3975473,7.16314851 C12.8606741,6.59314633 13.11005,5.46091903 13.11005,4.60591577 C13.11005,2.86028412 11.9344205,1.61572837 10.4025397,1.39965354 C10.1540334,1.36460125 9.61878668,1.32840327 9.40503587,1.39965354 C9.9394129,2.18340653 10.4025397,3.21653549 10.4025397,4.24966442 C10.4025397,5.35404363 10.0462883,6.80689716 9.36941074,7.69752556 C9.2031601,7.88752628 9.10815974,8.01815178 9.08440964,8.08940205 C9.08440964,8.12502719 9.08440964,8.12502719 9.12003479,8.12502718 C9.16753497,8.14877727 9.32191055,8.19627746 9.58316155,8.26752773 C11.0437921,8.7306545 12.2906719,9.55003263 13.11005,10.5831616 C13.4663014,11.0462883 13.6800522,11.5806654 13.6800522,12.1506675 C13.6800522,12.4712938 13.6088019,12.7206697 13.5019265,13.0056708 L14.5350554,13.0056708 C15.3544336,13.0056708 15.995686,12.4000435 15.995686,11.6162905 C15.9600609,11.224414 15.8531855,10.9394129 15.6394346,10.690037 Z" id="形状" fill="#888888" fill-rule="nonzero"></path>
        </g>
    </g>
</svg>