<?xml version="1.0" encoding="UTF-8"?>
<svg width="12px" height="12px" viewBox="0 0 12 12" version="1.1" xmlns="http://www.w3.org/2000/svg" xmlns:xlink="http://www.w3.org/1999/xlink">
    <!-- Generator: Sketch 53 (72520) - https://sketchapp.com -->
    <title>默认图标 copy 2</title>
    <desc>Created with Sketch.</desc>
    <g id="P-1-登录页" stroke="none" stroke-width="1" fill="none" fill-rule="evenodd">
        <g id="P3-03-卖家管理" transform="translate(-1254.000000, -148.000000)">
            <g id="分组" transform="translate(220.000000, 122.000000)">
                <g id="Bitmap">
                    <g id="搜索栏" transform="translate(696.000000, 15.000000)">
                        <g id="Group-6-Copy-4">
                            <g id="前后元素">
                                <g id="Group-34" transform="translate(15.000000, 5.000000)">
                                    <g id="默认图标-copy-2" transform="translate(321.000000, 4.000000)">
                                        <rect id="Rectangle-3" x="0" y="0" width="16" height="16"></rect>
                                        <g id="关-闭-(2)" transform="translate(2.000000, 2.000000)" fill-rule="nonzero">
                                            <path d="M0.555555559,6 C0.555555559,9.00688364 2.99311636,11.4444444 6,11.4444444 C9.00688364,11.4444444 11.4444444,9.00688364 11.4444444,6 C11.4444444,2.99311636 9.00688364,0.555555559 6,0.555555559 C2.99311636,0.555555559 0.555555559,2.99311636 0.555555559,6 Z" id="Shape" fill="#999999"></path>
                                            <path d="M8.8795926,3.25003704 C9.02607408,3.39677778 9.02607408,3.65344444 8.8795926,3.80018518 L3.92981482,8.74996296 C3.78307408,8.89644444 3.52640742,8.89644444 3.37966666,8.74996296 C3.23318518,8.60322222 3.23318518,8.34655556 3.37966666,8.19981482 L8.32944444,3.25003704 C8.47618518,3.10355556 8.73285184,3.10355556 8.8795926,3.25003704 Z" id="Shape" fill="#FFFFFF"></path>
                                            <path d="M3.37966666,3.25003704 C3.5264074,3.10355556 3.78307406,3.10355556 3.92981482,3.25003704 L8.8795926,8.19981482 C9.02607408,8.34655556 9.02607408,8.60322222 8.8795926,8.74996296 C8.73285186,8.89644444 8.4761852,8.89644444 8.32944444,8.74996296 L3.37966666,3.80018518 C3.23318518,3.65344444 3.23318518,3.39677778 3.37966666,3.25003704 Z" id="Shape" fill="#FFFFFF"></path>
                                        </g>
                                    </g>
                                </g>
                            </g>
                        </g>
                    </g>
                </g>
            </g>
        </g>
    </g>
</svg>